<?xml version="1.0" encoding="UTF-8" standalone="no"?>
<svg
   version="1.1"
   height="24"
   width="24"
   id="svg14"
   sodipodi:docname="edit.svg"
   viewBox="0 0 24 24"
   inkscape:version="1.1-dev (1:1.0+devel+202101072224+0b979dea14)"
   xmlns:inkscape="http://www.inkscape.org/namespaces/inkscape"
   xmlns:sodipodi="http://sodipodi.sourceforge.net/DTD/sodipodi-0.dtd"
   xmlns="http://www.w3.org/2000/svg"
   xmlns:svg="http://www.w3.org/2000/svg">
  <defs
     id="defs18" />
  <sodipodi:namedview
     id="namedview16"
     pagecolor="#ffffff"
     bordercolor="#666666"
     borderopacity="1.0"
     objecttolerance="10.0"
     gridtolerance="10.0"
     guidetolerance="10.0"
     inkscape:pageshadow="2"
     inkscape:pageopacity="0.0"
     inkscape:pagecheckerboard="0"
     showgrid="false"
     scale-x="1"
     inkscape:zoom="1"
     inkscape:cx="86.5"
     inkscape:cy="28.5"
     inkscape:window-width="1360"
     inkscape:window-height="718"
     inkscape:window-x="0"
     inkscape:window-y="0"
     inkscape:window-maximized="1"
     inkscape:current-layer="svg14" />
  <path
     style="fill:#ffffff;stroke:none;stroke-width:0.227628"
     d="m 15.797928,1.7226802 v 4.32494 h 4.32494 z"
     id="path2" />
  <path
     style="fill:#ebebda;stroke:#777777;stroke-width:0.455257"
     d="m 15.797928,1.7226802 v 4.32494 h 4.32494 V 22.892125 H 3.7336214 V 1.7226802 H 15.797928 l 4.32494,4.32494"
     id="path4" />
  <path
     style="fill:none;stroke:#444444;stroke-width:0.455257px"
     d="M 5.7822774,6.9581342 H 18.074212 Z m 0,2.048656 H 18.074212 Z m 0,2.0486558 H 18.074212 Z m 0,1.821027 h 5.2354536 z m 0,2.276285 H 18.074212 Z"
     id="path6" />
  <path
     style="fill:#cf9100;stroke:#333333;stroke-width:0.455257"
     d="M 6.6927904,16.518528 20.350496,2.1779372 c 0,0 1.138142,0.227628 1.821028,0.910514 0.682885,0.682885 0.910514,1.821027 0.910514,1.821027 L 9.6519604,19.25007 6.0099054,20.160583 Z"
     id="path8" />
  <path
     style="fill:#eeeeee;stroke-width:0.227628"
     d="M 20.350496,3.0884512 7.3756764,16.746157 7.8309324,17.201414 20.805753,3.5437082 Z"
     id="path10" />
  <path
     style="fill:#333333;stroke-width:0.227628"
     d="m 6.0099054,20.160583 1.593399,-0.455257 -1.138142,-1.138142 z"
     id="path12" />
</svg>
